<svg width="211" height="20" viewBox="0 0 211 20" fill="none" xmlns="http://www.w3.org/2000/svg">
<path d="M1.73703 18.88C1.38503 18.88 1.11303 18.808 0.921031 18.664C0.745031 18.52 0.657031 18.224 0.657031 17.776C0.657031 17.36 0.729031 17.072 0.873031 16.912C1.03303 16.736 1.21703 16.608 1.42503 16.528C1.63303 16.448 1.80903 16.344 1.95303 16.216C2.11303 16.088 2.19303 15.856 2.19303 15.52C2.19303 15.232 2.16903 14.944 2.12103 14.656C2.08903 14.368 2.07303 14.112 2.07303 13.888V13.408C2.07303 13.2 2.08103 12.864 2.09703 12.4C2.12903 11.936 2.16103 11.432 2.19303 10.888C2.22503 10.328 2.24903 9.8 2.26503 9.304C2.29703 8.808 2.31303 8.432 2.31303 8.176C2.44103 7.76 2.51303 7.432 2.52903 7.192C2.54503 6.952 2.55303 6.616 2.55303 6.184V5.632C2.39303 5.456 2.20903 5.312 2.00103 5.2C1.80903 5.072 1.63303 4.928 1.47303 4.768C1.32903 4.592 1.25703 4.352 1.25703 4.048C1.25703 3.728 1.34503 3.488 1.52103 3.328C1.71303 3.168 1.93703 3.088 2.19303 3.088C2.43303 3.088 2.64903 3.112 2.84103 3.16C3.03303 3.192 3.21703 3.208 3.39303 3.208H3.63303C4.06503 3.208 4.49703 3.152 4.92903 3.04C5.37703 2.912 5.81703 2.848 6.24903 2.848H6.36903C6.68903 2.848 6.94503 2.936 7.13703 3.112C7.32903 3.288 7.42503 3.56 7.42503 3.928C7.42503 4.344 7.34503 4.624 7.18503 4.768C7.02503 4.912 6.84103 5.016 6.63303 5.08C6.39303 5.144 6.16903 5.2 5.96103 5.248C5.76903 5.296 5.58503 5.432 5.40903 5.656C4.92903 8.264 4.68903 10.88 4.68903 13.504C4.68903 13.92 4.68903 14.264 4.68903 14.536C4.70503 14.808 4.74503 15.208 4.80903 15.736C4.85703 15.848 4.98503 15.928 5.19303 15.976C5.40103 16.008 5.63303 16.048 5.88903 16.096C6.14503 16.144 6.36103 16.248 6.53703 16.408C6.72903 16.568 6.82503 16.832 6.82503 17.2C6.82503 17.552 6.70503 17.816 6.46503 17.992C6.24103 18.168 5.95303 18.288 5.60103 18.352C5.26503 18.416 4.92103 18.456 4.56903 18.472C4.23303 18.488 3.95303 18.52 3.72903 18.568C3.48903 18.616 3.23303 18.68 2.96103 18.76C2.68903 18.84 2.43303 18.88 2.19303 18.88H1.73703ZM13.3468 19.96C13.0108 19.96 12.7068 19.808 12.4348 19.504C12.1788 19.2 12.0508 18.864 12.0508 18.496V16.48C12.0508 15.536 12.0668 14.616 12.0988 13.72C12.1468 12.808 12.1708 11.88 12.1708 10.936C12.1708 10.888 12.1548 10.776 12.1228 10.6C12.1068 10.424 12.0908 10.232 12.0748 10.024H11.9308C11.7708 10.024 11.5948 10.048 11.4028 10.096C11.2268 10.128 11.0508 10.144 10.8748 10.144C10.4748 10.144 10.1548 10.032 9.91484 9.808C9.67484 9.568 9.55484 9.24 9.55484 8.824C9.55484 8.44 9.64284 8.168 9.81884 8.008C10.0108 7.848 10.2428 7.744 10.5148 7.696C10.8028 7.648 11.0908 7.608 11.3788 7.576C11.6828 7.528 11.9388 7.432 12.1468 7.288C12.3548 7.144 12.4828 6.896 12.5308 6.544C12.7068 5.776 12.8908 5.048 13.0828 4.36C13.2908 3.672 13.5628 3.064 13.8988 2.536C14.2348 2.008 14.6908 1.592 15.2668 1.288C15.8428 0.983999 16.5948 0.831999 17.5228 0.831999C17.7308 0.831999 18.0108 0.863999 18.3628 0.927999C18.7308 0.975999 19.0988 1.064 19.4668 1.192C19.8508 1.32 20.1708 1.496 20.4268 1.72C20.6988 1.928 20.8348 2.2 20.8348 2.536C20.8348 2.904 20.7068 3.224 20.4508 3.496C20.2108 3.752 19.9388 3.88 19.6348 3.88C19.2348 3.88 18.8588 3.8 18.5068 3.64C18.1548 3.48 17.7788 3.4 17.3788 3.4C16.8188 3.4 16.3868 3.592 16.0828 3.976C15.7948 4.344 15.5948 4.816 15.4828 5.392C15.3708 5.952 15.3068 6.52 15.2908 7.096H17.6428C17.9148 7.096 18.1548 7.24 18.3628 7.528C18.5868 7.8 18.6988 8.072 18.6988 8.344C18.6988 8.664 18.6108 8.904 18.4348 9.064C18.2588 9.224 18.0428 9.336 17.7868 9.4C17.5308 9.448 17.2828 9.496 17.0428 9.544C16.8988 9.544 16.6828 9.568 16.3948 9.616C16.1068 9.648 15.8108 9.68 15.5068 9.712C15.2188 9.744 14.9868 9.768 14.8108 9.784C14.7148 9.848 14.6348 10.072 14.5708 10.456C14.5228 10.824 14.4828 11.264 14.4508 11.776C14.4348 12.288 14.4268 12.8 14.4268 13.312C14.4268 13.728 14.4268 14.112 14.4268 14.464C14.4428 14.816 14.4508 15.056 14.4508 15.184C14.4508 15.664 14.4668 16.136 14.4988 16.6C14.5468 17.064 14.5708 17.504 14.5708 17.92C14.5708 18.208 14.5468 18.512 14.4988 18.832C14.4668 19.136 14.3628 19.4 14.1868 19.624C14.0268 19.848 13.7468 19.96 13.3468 19.96ZM31.0573 18.88C30.7053 18.88 30.4333 18.808 30.2413 18.664C30.0653 18.52 29.9773 18.224 29.9773 17.776C29.9773 17.36 30.0493 17.072 30.1933 16.912C30.3533 16.736 30.5373 16.608 30.7453 16.528C30.9533 16.448 31.1293 16.344 31.2733 16.216C31.4333 16.088 31.5133 15.856 31.5133 15.52C31.5133 15.232 31.4893 14.944 31.4413 14.656C31.4093 14.368 31.3933 14.112 31.3933 13.888V13.408C31.3933 13.2 31.4013 12.864 31.4173 12.4C31.4493 11.936 31.4813 11.432 31.5133 10.888C31.5453 10.328 31.5693 9.8 31.5853 9.304C31.6173 8.808 31.6333 8.432 31.6333 8.176C31.7613 7.76 31.8333 7.432 31.8493 7.192C31.8653 6.952 31.8733 6.616 31.8733 6.184V5.632C31.7133 5.456 31.5293 5.312 31.3213 5.2C31.1293 5.072 30.9533 4.928 30.7933 4.768C30.6493 4.592 30.5773 4.352 30.5773 4.048C30.5773 3.728 30.6653 3.488 30.8413 3.328C31.0333 3.168 31.2573 3.088 31.5133 3.088C31.7533 3.088 31.9693 3.112 32.1613 3.16C32.3533 3.192 32.5373 3.208 32.7133 3.208H32.9533C33.3853 3.208 33.8173 3.152 34.2493 3.04C34.6973 2.912 35.1373 2.848 35.5693 2.848H35.6893C36.0093 2.848 36.2653 2.936 36.4573 3.112C36.6493 3.288 36.7453 3.56 36.7453 3.928C36.7453 4.344 36.6653 4.624 36.5053 4.768C36.3453 4.912 36.1613 5.016 35.9533 5.08C35.7133 5.144 35.4893 5.2 35.2813 5.248C35.0893 5.296 34.9053 5.432 34.7293 5.656C34.2493 8.264 34.0093 10.88 34.0093 13.504C34.0093 13.92 34.0093 14.264 34.0093 14.536C34.0253 14.808 34.0653 15.208 34.1293 15.736C34.1773 15.848 34.3053 15.928 34.5133 15.976C34.7213 16.008 34.9533 16.048 35.2093 16.096C35.4653 16.144 35.6813 16.248 35.8573 16.408C36.0493 16.568 36.1453 16.832 36.1453 17.2C36.1453 17.552 36.0253 17.816 35.7853 17.992C35.5613 18.168 35.2733 18.288 34.9213 18.352C34.5853 18.416 34.2413 18.456 33.8893 18.472C33.5533 18.488 33.2733 18.52 33.0493 18.568C32.8093 18.616 32.5533 18.68 32.2813 18.76C32.0093 18.84 31.7533 18.88 31.5133 18.88H31.0573ZM51.7302 19.36C50.9302 19.152 50.2582 18.8 49.7142 18.304C49.1862 17.792 48.7862 17.192 48.5142 16.504C48.2582 15.816 48.1302 15.096 48.1302 14.344C48.1302 13.304 48.3542 12.304 48.8022 11.344C49.2502 10.368 49.8502 9.504 50.6022 8.752C51.3702 7.984 52.2342 7.376 53.1942 6.928C54.1702 6.48 55.1782 6.256 56.2182 6.256C56.5862 6.256 56.9382 6.312 57.2742 6.424C57.6262 6.52 57.9782 6.576 58.3302 6.592L58.4262 6.28C58.4422 5.992 58.4662 5.632 58.4982 5.2C58.5302 4.768 58.5702 4.32 58.6182 3.856C58.6822 3.376 58.7462 2.92 58.8102 2.488C58.8902 2.056 58.9782 1.712 59.0742 1.456C59.2022 1.088 59.3862 0.776 59.6262 0.519999C59.8662 0.247999 60.1862 0.111999 60.5862 0.111999C60.9862 0.111999 61.2422 0.239999 61.3542 0.495999C61.4822 0.751999 61.5462 1.072 61.5462 1.456V2.056C61.3222 3.896 61.1462 5.712 61.0182 7.504C60.9062 9.28 60.8502 11.056 60.8502 12.832C60.8502 13.648 60.8902 14.448 60.9702 15.232C61.0502 16 61.0902 16.808 61.0902 17.656C61.0902 17.96 61.0422 18.264 60.9462 18.568C60.8662 18.856 60.6262 19 60.2262 19C59.8102 19 59.4902 18.888 59.2662 18.664C59.0422 18.424 58.8822 18.128 58.7862 17.776C58.6902 17.424 58.6102 17.088 58.5462 16.768C58.5142 16.528 58.4822 16.408 58.4502 16.408H58.3542C57.5222 17.32 56.6662 18.04 55.7862 18.568C54.9222 19.096 53.9222 19.36 52.7862 19.36H51.7302ZM52.6422 16.912C53.2662 16.912 53.8662 16.744 54.4422 16.408C55.0182 16.072 55.5302 15.632 55.9782 15.088C56.4422 14.544 56.8022 13.96 57.0582 13.336C57.3302 12.696 57.4662 12.088 57.4662 11.512C57.4662 11.368 57.4342 11.152 57.3702 10.864C57.3062 10.576 57.2262 10.272 57.1302 9.952C57.0342 9.632 56.9302 9.368 56.8182 9.16C56.7222 8.936 56.6342 8.824 56.5542 8.824C55.7862 8.824 55.0582 8.984 54.3702 9.304C53.6822 9.608 53.0662 10.024 52.5222 10.552C51.9942 11.08 51.5702 11.68 51.2502 12.352C50.9462 13.024 50.7942 13.728 50.7942 14.464V15.424C50.9222 15.888 51.1382 16.256 51.4422 16.528C51.7462 16.784 52.1462 16.912 52.6422 16.912ZM66.9561 4.216C66.4761 4.216 66.0601 4.064 65.7081 3.76C65.3561 3.456 65.1801 3.008 65.1801 2.416C65.1801 1.824 65.3881 1.408 65.8041 1.168C66.2201 0.927999 66.6441 0.808 67.0761 0.808C67.5721 0.808 67.9881 0.96 68.3241 1.264C68.6761 1.568 68.8521 2.024 68.8521 2.632C68.8521 3.208 68.6441 3.616 68.2281 3.856C67.8281 4.096 67.4041 4.216 66.9561 4.216ZM65.9961 18.64C65.6921 18.64 65.4601 18.48 65.3001 18.16C65.1401 17.84 65.0201 17.52 64.9401 17.2V14.104C64.9401 14.024 64.9561 13.816 64.9881 13.48C65.0361 13.128 65.0841 12.72 65.1321 12.256C65.1961 11.776 65.2521 11.32 65.3001 10.888C65.3641 10.44 65.4121 10.088 65.4441 9.832C65.4921 9.512 65.5481 9.16 65.6121 8.776C65.6921 8.392 65.8281 8.056 66.0201 7.768C66.2121 7.48 66.4841 7.336 66.8361 7.336C67.2201 7.336 67.4921 7.432 67.6521 7.624C67.8281 7.8 67.9321 8.024 67.9641 8.296C67.9961 8.568 68.0121 8.848 68.0121 9.136V9.976C68.0121 10.008 68.0041 10.08 67.9881 10.192C67.9721 10.288 67.9481 10.4 67.9161 10.528C67.8041 11.088 67.7161 11.504 67.6521 11.776C67.6041 12.032 67.5641 12.256 67.5321 12.448C67.5161 12.624 67.5081 12.872 67.5081 13.192C67.5081 13.384 67.5081 13.624 67.5081 13.912C67.5241 14.2 67.5321 14.576 67.5321 15.04C67.5321 15.248 67.5401 15.456 67.5561 15.664C67.5721 15.856 67.5801 16.064 67.5801 16.288C67.5801 16.528 67.5561 16.784 67.5081 17.056C67.4441 17.456 67.3001 17.824 67.0761 18.16C66.8521 18.48 66.4921 18.64 65.9961 18.64ZM76.8853 19.36C75.7333 19.36 74.6693 19.184 73.6933 18.832C72.7333 18.464 71.9573 17.888 71.3653 17.104C70.7733 16.304 70.4773 15.272 70.4773 14.008C70.4773 13.048 70.6293 12.112 70.9333 11.2C71.2533 10.288 71.7093 9.464 72.3013 8.728C72.8933 7.976 73.6053 7.384 74.4373 6.952C75.2693 6.504 76.2053 6.28 77.2453 6.28C77.9493 6.28 78.6053 6.424 79.2133 6.712C79.8373 6.984 80.3333 7.392 80.7013 7.936C81.0853 8.464 81.2773 9.112 81.2773 9.88C81.2773 10.616 81.1253 11.32 80.8213 11.992C80.5173 12.664 80.1013 13.264 79.5733 13.792C79.0453 14.32 78.4453 14.736 77.7733 15.04C77.1173 15.328 76.4293 15.472 75.7093 15.472C75.5973 15.472 75.3493 15.448 74.9653 15.4C74.5813 15.336 74.2773 15.272 74.0533 15.208C73.8933 15.176 73.7653 15.112 73.6693 15.016C73.6373 15 73.5813 14.976 73.5013 14.944C73.4213 14.896 73.3653 14.872 73.3333 14.872C73.4453 15.336 73.6773 15.728 74.0293 16.048C74.3973 16.352 74.8133 16.576 75.2773 16.72C75.7573 16.864 76.2133 16.936 76.6453 16.936C76.9493 16.936 77.2533 16.92 77.5573 16.888C77.8773 16.84 78.2133 16.816 78.5653 16.816C78.9173 16.816 79.2213 16.912 79.4773 17.104C79.7333 17.296 79.8613 17.608 79.8613 18.04C79.8613 18.392 79.7493 18.664 79.5253 18.856C79.3173 19.048 79.0453 19.176 78.7093 19.24C78.3893 19.304 78.0613 19.336 77.7253 19.336C77.4053 19.352 77.1253 19.36 76.8853 19.36ZM75.7093 12.688C76.1893 12.688 76.6613 12.6 77.1253 12.424C77.6053 12.232 77.9973 11.952 78.3013 11.584C78.6213 11.216 78.7813 10.76 78.7813 10.216C78.7813 9.752 78.6373 9.384 78.3493 9.112C78.0773 8.84 77.7093 8.704 77.2453 8.704C76.8293 8.704 76.3893 8.816 75.9253 9.04C75.4613 9.264 75.0213 9.552 74.6053 9.904C74.2053 10.256 73.8773 10.64 73.6213 11.056C73.3653 11.456 73.2373 11.848 73.2373 12.232V12.328C73.6533 12.392 74.0693 12.472 74.4853 12.568C74.9013 12.648 75.3093 12.688 75.7093 12.688ZM97.2934 19.48C96.7974 19.48 96.4294 19.328 96.1894 19.024C95.9494 18.72 95.7894 18.352 95.7094 17.92C95.6454 17.472 95.6134 17.064 95.6134 16.696V15.784C95.6134 14.776 95.6294 13.76 95.6614 12.736C95.7094 11.712 95.7414 10.608 95.7574 9.424C95.3574 9.44 95.0134 9.464 94.7254 9.496C94.4534 9.528 94.1734 9.544 93.8854 9.544C93.1494 9.544 92.7814 9.184 92.7814 8.464C92.7814 8.192 92.8294 7.936 92.9254 7.696C93.0214 7.44 93.2214 7.28 93.5254 7.216L95.6374 6.736C95.9094 6.672 96.0854 6.504 96.1654 6.232C96.2614 5.944 96.3094 5.616 96.3094 5.248C96.3254 4.864 96.3494 4.488 96.3814 4.12C96.4294 3.752 96.5494 3.448 96.7414 3.208C96.9494 2.968 97.2934 2.848 97.7734 2.848C98.1094 2.848 98.3574 2.944 98.5174 3.136C98.6934 3.312 98.8134 3.528 98.8774 3.784C98.9414 4.04 98.9734 4.288 98.9734 4.528C98.9734 4.56 98.9654 4.672 98.9494 4.864C98.9334 5.04 98.9094 5.216 98.8774 5.392C98.8614 5.568 98.8534 5.68 98.8534 5.728V6.496H101.781C102.133 6.496 102.405 6.664 102.597 7C102.789 7.32 102.885 7.648 102.885 7.984C102.885 8.048 102.861 8.168 102.813 8.344C102.765 8.52 102.677 8.688 102.549 8.848C102.421 8.992 102.245 9.064 102.021 9.064H98.9494C98.9334 9.064 98.9014 9.08 98.8534 9.112C98.8054 9.128 98.7494 9.176 98.6854 9.256L98.6374 9.328C98.5574 9.76 98.5014 10.112 98.4694 10.384C98.4374 10.64 98.4134 10.88 98.3974 11.104C98.3974 11.312 98.3974 11.568 98.3974 11.872C98.3974 12.752 98.4134 13.632 98.4454 14.512C98.4934 15.392 98.5174 16.32 98.5174 17.296C98.5174 17.616 98.4934 17.944 98.4454 18.28C98.3974 18.616 98.2854 18.896 98.1094 19.12C97.9334 19.36 97.6614 19.48 97.2934 19.48ZM111.318 19C110.166 19 109.094 18.752 108.102 18.256C107.11 17.76 106.31 17.056 105.702 16.144C105.094 15.232 104.79 14.168 104.79 12.952C104.79 12.12 104.958 11.352 105.294 10.648C105.646 9.928 106.086 9.256 106.614 8.632C107.158 8.008 107.702 7.424 108.246 6.88C108.534 6.592 108.878 6.384 109.278 6.256C109.678 6.112 110.086 6.04 110.502 6.04C111.542 6.04 112.542 6.152 113.502 6.376C114.462 6.6 115.318 6.968 116.07 7.48C116.838 7.976 117.446 8.64 117.894 9.472C118.342 10.288 118.566 11.288 118.566 12.472C118.566 13.448 118.358 14.336 117.942 15.136C117.526 15.936 116.966 16.624 116.262 17.2C115.574 17.776 114.798 18.224 113.934 18.544C113.086 18.848 112.214 19 111.318 19ZM110.838 16.336C111.718 16.336 112.55 16.184 113.334 15.88C114.118 15.56 114.758 15.088 115.254 14.464C115.766 13.824 116.022 13.04 116.022 12.112C116.022 11.296 115.782 10.616 115.302 10.072C114.838 9.528 114.246 9.128 113.526 8.872C112.806 8.6 112.07 8.464 111.318 8.464C110.934 8.464 110.622 8.52 110.382 8.632C110.142 8.744 109.926 8.896 109.734 9.088C109.542 9.28 109.318 9.504 109.062 9.76C108.614 10.224 108.214 10.736 107.862 11.296C107.51 11.84 107.334 12.464 107.334 13.168C107.334 14.288 107.67 15.096 108.342 15.592C109.014 16.088 109.846 16.336 110.838 16.336ZM123.071 18.76C122.719 18.76 122.407 18.648 122.135 18.424C121.879 18.184 121.751 17.888 121.751 17.536C121.751 17.008 121.767 16.496 121.799 16C121.847 15.504 121.871 15 121.871 14.488V12.904C121.871 12.248 121.847 11.6 121.799 10.96C121.767 10.304 121.663 9.656 121.487 9.016C121.423 8.824 121.367 8.624 121.319 8.416C121.287 8.192 121.271 7.968 121.271 7.744C121.271 7.424 121.351 7.104 121.511 6.784C121.671 6.448 121.959 6.28 122.375 6.28C122.711 6.28 122.983 6.408 123.191 6.664C123.399 6.904 123.559 7.208 123.671 7.576C123.783 7.928 123.863 8.288 123.911 8.656C123.975 9.008 124.031 9.304 124.079 9.544C124.111 9.752 124.159 9.976 124.223 10.216C124.287 10.456 124.319 10.688 124.319 10.912C124.319 10.928 124.335 10.976 124.367 11.056C124.399 11.136 124.431 11.216 124.463 11.296C124.671 10.928 124.903 10.528 125.159 10.096C125.431 9.648 125.727 9.232 126.047 8.848C126.383 8.448 126.751 8.12 127.151 7.864C127.567 7.608 128.023 7.48 128.519 7.48C129.031 7.48 129.415 7.608 129.671 7.864C129.943 8.104 130.159 8.408 130.319 8.776C130.479 9.128 130.639 9.48 130.799 9.832C130.863 9.992 130.903 10.16 130.919 10.336C130.935 10.496 130.975 10.664 131.039 10.84L131.303 10.456C131.623 10.008 131.983 9.52 132.383 8.992C132.799 8.448 133.263 7.984 133.775 7.6C134.287 7.2 134.863 7 135.503 7C136.015 7 136.447 7.152 136.799 7.456C137.167 7.744 137.463 8.12 137.687 8.584C137.927 9.048 138.103 9.528 138.215 10.024C138.327 10.52 138.383 10.976 138.383 11.392V16.48C138.383 16.72 138.343 16.984 138.263 17.272C138.199 17.544 138.079 17.784 137.903 17.992C137.727 18.184 137.479 18.28 137.159 18.28C136.791 18.28 136.495 18.152 136.271 17.896C136.047 17.64 135.935 17.368 135.935 17.08V12.712C135.935 12.664 135.927 12.56 135.911 12.4C135.895 12.24 135.871 12.072 135.839 11.896C135.823 11.72 135.815 11.592 135.815 11.512C135.815 11.384 135.799 11.184 135.767 10.912C135.735 10.64 135.671 10.384 135.575 10.144C135.479 9.904 135.335 9.784 135.143 9.784H134.927C134.447 10.2 134.087 10.6 133.847 10.984C133.607 11.352 133.423 11.72 133.295 12.088C133.167 12.456 133.047 12.848 132.935 13.264C132.823 13.664 132.663 14.104 132.455 14.584C132.343 15 132.159 15.392 131.903 15.76C131.663 16.112 131.327 16.288 130.895 16.288C130.479 16.288 130.159 16.176 129.935 15.952C129.727 15.712 129.567 15.424 129.455 15.088C129.359 14.752 129.279 14.432 129.215 14.128C129.183 13.984 129.127 13.744 129.047 13.408C128.967 13.072 128.879 12.704 128.783 12.304C128.703 11.904 128.623 11.528 128.543 11.176C128.463 10.808 128.407 10.536 128.375 10.36C128.279 10.216 128.183 10.144 128.087 10.144C127.943 10.144 127.791 10.248 127.631 10.456C127.471 10.664 127.351 10.864 127.271 11.056C127.175 11.2 127.039 11.456 126.863 11.824C126.687 12.176 126.519 12.52 126.359 12.856C126.215 13.192 126.119 13.416 126.071 13.528C126.039 13.624 125.943 13.856 125.783 14.224C125.639 14.592 125.471 15.016 125.279 15.496C125.087 15.96 124.911 16.384 124.751 16.768C124.591 17.152 124.487 17.408 124.439 17.536C124.279 17.84 124.111 18.12 123.935 18.376C123.775 18.632 123.487 18.76 123.071 18.76ZM147.552 19C146.4 19 145.328 18.752 144.336 18.256C143.344 17.76 142.544 17.056 141.936 16.144C141.328 15.232 141.024 14.168 141.024 12.952C141.024 12.12 141.192 11.352 141.528 10.648C141.88 9.928 142.32 9.256 142.848 8.632C143.392 8.008 143.936 7.424 144.48 6.88C144.768 6.592 145.112 6.384 145.512 6.256C145.912 6.112 146.32 6.04 146.736 6.04C147.776 6.04 148.776 6.152 149.736 6.376C150.696 6.6 151.552 6.968 152.304 7.48C153.072 7.976 153.68 8.64 154.128 9.472C154.576 10.288 154.8 11.288 154.8 12.472C154.8 13.448 154.592 14.336 154.176 15.136C153.76 15.936 153.2 16.624 152.496 17.2C151.808 17.776 151.032 18.224 150.168 18.544C149.32 18.848 148.448 19 147.552 19ZM147.072 16.336C147.952 16.336 148.784 16.184 149.568 15.88C150.352 15.56 150.992 15.088 151.488 14.464C152 13.824 152.256 13.04 152.256 12.112C152.256 11.296 152.016 10.616 151.536 10.072C151.072 9.528 150.48 9.128 149.76 8.872C149.04 8.6 148.304 8.464 147.552 8.464C147.168 8.464 146.856 8.52 146.616 8.632C146.376 8.744 146.16 8.896 145.968 9.088C145.776 9.28 145.552 9.504 145.296 9.76C144.848 10.224 144.448 10.736 144.096 11.296C143.744 11.84 143.568 12.464 143.568 13.168C143.568 14.288 143.904 15.096 144.576 15.592C145.248 16.088 146.08 16.336 147.072 16.336ZM158.586 19.24C158.298 19.24 158.082 19.144 157.938 18.952C157.794 18.76 157.698 18.536 157.65 18.28C157.602 18.008 157.554 17.768 157.506 17.56V15.784C157.506 14.888 157.546 13.984 157.626 13.072C157.706 12.144 157.746 11.24 157.746 10.36C157.746 9.944 157.706 9.544 157.626 9.16C157.546 8.776 157.506 8.384 157.506 7.984V7.336C157.634 7.096 157.802 6.92 158.01 6.808C158.234 6.696 158.466 6.64 158.706 6.64C159.058 6.64 159.322 6.744 159.498 6.952C159.674 7.144 159.794 7.376 159.858 7.648C159.938 7.92 160.01 8.168 160.074 8.392C160.138 8.6 160.242 8.72 160.386 8.752C160.85 8.448 161.29 8.152 161.706 7.864C162.138 7.576 162.586 7.344 163.05 7.168C163.53 6.976 164.058 6.88 164.634 6.88C164.922 6.88 165.226 6.944 165.546 7.072C165.882 7.2 166.17 7.384 166.41 7.624C166.65 7.848 166.77 8.128 166.77 8.464C166.77 8.88 166.602 9.184 166.266 9.376C165.946 9.568 165.642 9.664 165.354 9.664C165.162 9.664 164.978 9.624 164.802 9.544C164.626 9.464 164.442 9.424 164.25 9.424C163.69 9.424 163.162 9.568 162.666 9.856C162.186 10.128 161.762 10.456 161.394 10.84C161.026 11.224 160.73 11.584 160.506 11.92C160.442 12.064 160.394 12.304 160.362 12.64C160.33 12.976 160.306 13.36 160.29 13.792C160.274 14.208 160.258 14.616 160.242 15.016C160.242 15.416 160.234 15.76 160.218 16.048C160.202 16.576 160.146 17.088 160.05 17.584C159.97 18.064 159.818 18.464 159.594 18.784C159.37 19.088 159.034 19.24 158.586 19.24ZM168.312 19.24C168.024 19.24 167.808 19.144 167.664 18.952C167.52 18.76 167.424 18.536 167.376 18.28C167.328 18.008 167.28 17.768 167.232 17.56V15.784C167.232 14.888 167.272 13.984 167.352 13.072C167.432 12.144 167.472 11.24 167.472 10.36C167.472 9.944 167.432 9.544 167.352 9.16C167.272 8.776 167.232 8.384 167.232 7.984V7.336C167.36 7.096 167.528 6.92 167.736 6.808C167.96 6.696 168.192 6.64 168.432 6.64C168.784 6.64 169.048 6.744 169.224 6.952C169.4 7.144 169.52 7.376 169.584 7.648C169.664 7.92 169.736 8.168 169.8 8.392C169.864 8.6 169.968 8.72 170.112 8.752C170.576 8.448 171.016 8.152 171.432 7.864C171.864 7.576 172.312 7.344 172.776 7.168C173.256 6.976 173.784 6.88 174.36 6.88C174.648 6.88 174.952 6.944 175.272 7.072C175.608 7.2 175.896 7.384 176.136 7.624C176.376 7.848 176.496 8.128 176.496 8.464C176.496 8.88 176.328 9.184 175.992 9.376C175.672 9.568 175.368 9.664 175.08 9.664C174.888 9.664 174.704 9.624 174.528 9.544C174.352 9.464 174.168 9.424 173.976 9.424C173.416 9.424 172.888 9.568 172.392 9.856C171.912 10.128 171.488 10.456 171.12 10.84C170.752 11.224 170.456 11.584 170.232 11.92C170.168 12.064 170.12 12.304 170.088 12.64C170.056 12.976 170.032 13.36 170.016 13.792C170 14.208 169.984 14.616 169.968 15.016C169.968 15.416 169.96 15.76 169.944 16.048C169.928 16.576 169.872 17.088 169.776 17.584C169.696 18.064 169.544 18.464 169.32 18.784C169.096 19.088 168.76 19.24 168.312 19.24ZM183.271 19C182.119 19 181.047 18.752 180.055 18.256C179.063 17.76 178.263 17.056 177.655 16.144C177.047 15.232 176.743 14.168 176.743 12.952C176.743 12.12 176.911 11.352 177.247 10.648C177.599 9.928 178.039 9.256 178.567 8.632C179.111 8.008 179.655 7.424 180.199 6.88C180.487 6.592 180.831 6.384 181.231 6.256C181.631 6.112 182.039 6.04 182.455 6.04C183.495 6.04 184.495 6.152 185.455 6.376C186.415 6.6 187.271 6.968 188.023 7.48C188.791 7.976 189.399 8.64 189.847 9.472C190.295 10.288 190.519 11.288 190.519 12.472C190.519 13.448 190.311 14.336 189.895 15.136C189.479 15.936 188.919 16.624 188.215 17.2C187.527 17.776 186.751 18.224 185.887 18.544C185.039 18.848 184.167 19 183.271 19ZM182.791 16.336C183.671 16.336 184.503 16.184 185.287 15.88C186.071 15.56 186.711 15.088 187.207 14.464C187.719 13.824 187.975 13.04 187.975 12.112C187.975 11.296 187.735 10.616 187.255 10.072C186.791 9.528 186.199 9.128 185.479 8.872C184.759 8.6 184.023 8.464 183.271 8.464C182.887 8.464 182.575 8.52 182.335 8.632C182.095 8.744 181.879 8.896 181.687 9.088C181.495 9.28 181.271 9.504 181.015 9.76C180.567 10.224 180.167 10.736 179.815 11.296C179.463 11.84 179.287 12.464 179.287 13.168C179.287 14.288 179.623 15.096 180.295 15.592C180.967 16.088 181.799 16.336 182.791 16.336ZM197.401 19.12C196.809 19.12 196.289 18.904 195.841 18.472C195.393 18.024 195.009 17.472 194.689 16.816C194.385 16.16 194.137 15.504 193.945 14.848C193.769 14.176 193.649 13.616 193.585 13.168C193.569 12.992 193.537 12.744 193.489 12.424C193.457 12.088 193.417 11.752 193.369 11.416C193.321 11.064 193.281 10.752 193.249 10.48C193.233 10.208 193.225 10.048 193.225 10V9.28C193.225 8.944 193.249 8.6 193.297 8.248C193.345 7.896 193.465 7.6 193.657 7.36C193.865 7.12 194.209 7 194.689 7C194.961 7 195.209 7.072 195.433 7.216C195.673 7.36 195.793 7.576 195.793 7.864C195.793 8.856 195.817 9.792 195.865 10.672C195.913 11.536 196.033 12.384 196.225 13.216C196.417 14.048 196.737 14.928 197.185 15.856H197.377C197.697 15.088 197.985 14.312 198.241 13.528C198.497 12.728 198.761 11.936 199.033 11.152C199.145 10.832 199.305 10.512 199.513 10.192C199.737 9.856 200.009 9.576 200.329 9.352C200.665 9.128 201.033 9.016 201.433 9.016C201.849 9.016 202.217 9.152 202.537 9.424C202.873 9.696 203.169 10.048 203.425 10.48C203.681 10.912 203.905 11.368 204.097 11.848C204.289 12.328 204.457 12.776 204.601 13.192C204.745 13.608 204.873 13.944 204.985 14.2H205.009C205.041 14.264 205.073 14.344 205.105 14.44C205.153 14.52 205.201 14.6 205.249 14.68C205.553 13.8 205.857 12.92 206.161 12.04C206.481 11.16 206.809 10.296 207.145 9.448C207.241 9.192 207.393 8.888 207.601 8.536C207.825 8.168 208.073 7.84 208.345 7.552C208.633 7.264 208.929 7.12 209.233 7.12C209.553 7.12 209.817 7.232 210.025 7.456C210.233 7.664 210.337 7.92 210.337 8.224C210.337 8.368 210.329 8.504 210.313 8.632C210.313 8.76 210.281 8.896 210.217 9.04C210.105 9.344 209.961 9.776 209.785 10.336C209.625 10.88 209.433 11.488 209.209 12.16C208.985 12.816 208.737 13.488 208.465 14.176C208.193 14.848 207.889 15.472 207.553 16.048C207.233 16.608 206.881 17.064 206.497 17.416C206.129 17.752 205.737 17.92 205.321 17.92C204.857 17.92 204.425 17.736 204.025 17.368C203.641 16.984 203.289 16.52 202.969 15.976C202.665 15.416 202.401 14.864 202.177 14.32C201.953 13.76 201.769 13.312 201.625 12.976C201.609 12.944 201.593 12.912 201.577 12.88C201.561 12.832 201.537 12.784 201.505 12.736H201.457L201.361 12.856C201.281 13.112 201.169 13.488 201.025 13.984C200.881 14.48 200.697 15.024 200.473 15.616C200.265 16.192 200.017 16.752 199.729 17.296C199.441 17.824 199.105 18.264 198.721 18.616C198.337 18.952 197.897 19.12 197.401 19.12Z" fill="#B3E9EB"/>
</svg>
