<svg width="36" height="36" viewBox="0 0 36 36" fill="none" xmlns="http://www.w3.org/2000/svg">
<path d="M29 8L6.5 7.5L4.5 9V22V30L6 31.5H29.5L31.5 30.5V22.5L31 13.5L31.5 10L30.5 8.5L29 8Z" fill="#FFD2D2"/>
<path d="M11.769 10.7308V4.5M17.9998 10.7308V4.5M24.2306 10.7308V4.5" stroke="#04373B" stroke-width="2.3" stroke-linecap="round" stroke-linejoin="round"/>
<path d="M29.4231 7.61572H6.57692C5.42987 7.61572 4.5 8.54559 4.5 9.69265V29.4234C4.5 30.5705 5.42987 31.5003 6.57692 31.5003H29.4231C30.5701 31.5003 31.5 30.5705 31.5 29.4234V9.69265C31.5 8.54559 30.5701 7.61572 29.4231 7.61572Z" stroke="#04373B" stroke-width="2.3" stroke-linecap="round" stroke-linejoin="round"/>
<path d="M10.731 18H25.2694M10.731 24.2308H19.0386" stroke="#04373B" stroke-width="2.3" stroke-linecap="round" stroke-linejoin="round"/>
</svg>
