<svg width="30" height="30" viewBox="0 0 30 30" fill="none" xmlns="http://www.w3.org/2000/svg">
<path d="M15 20C17.0711 20 18.75 18.3211 18.75 16.25C18.75 14.1789 17.0711 12.5 15 12.5C12.9289 12.5 11.25 14.1789 11.25 16.25C11.25 18.3211 12.9289 20 15 20Z" fill="#111111"/>
<path d="M25 6.25H21.0375L19.4875 4.5625C19.025 4.05 18.35 3.75 17.65 3.75H12.35C11.65 3.75 10.975 4.05 10.5 4.5625L8.9625 6.25H5C3.625 6.25 2.5 7.375 2.5 8.75V23.75C2.5 25.125 3.625 26.25 5 26.25H25C26.375 26.25 27.5 25.125 27.5 23.75V8.75C27.5 7.375 26.375 6.25 25 6.25ZM15 22.5C11.55 22.5 8.75 19.7 8.75 16.25C8.75 12.8 11.55 10 15 10C18.45 10 21.25 12.8 21.25 16.25C21.25 19.7 18.45 22.5 15 22.5Z" fill="#111111"/>
</svg>
