<svg width="20" height="19" viewBox="0 0 20 19" fill="none" xmlns="http://www.w3.org/2000/svg">
<path d="M11.5 3.58591L13.793 1.29291C13.9805 1.10544 14.2348 1.00012 14.5 1.00012C14.7652 1.00012 15.0195 1.10544 15.207 1.29291L17.793 3.87891C17.9805 4.06644 18.0858 4.32074 18.0858 4.58591C18.0858 4.85107 17.9805 5.10538 17.793 5.29291L15.5 7.58591M11.5 3.58591L1.793 13.2929C1.60545 13.4804 1.50006 13.7347 1.5 13.9999V16.5859C1.5 16.8511 1.60536 17.1055 1.79289 17.293C1.98043 17.4806 2.23478 17.5859 2.5 17.5859H5.086C5.35119 17.5859 5.60551 17.4805 5.793 17.2929L15.5 7.58591M11.5 3.58591L15.5 7.58591" stroke="#076267" stroke-width="2" stroke-linecap="round" stroke-linejoin="round"/>
</svg>
