<svg width="36" height="36" viewBox="0 0 36 36" fill="none" xmlns="http://www.w3.org/2000/svg">
<path d="M4 25V11L12 15L18 19L17 32.5L4 25Z" fill="#FFD2D2"/>
<path d="M31.455 9.30255L19.08 2.53146C18.7494 2.34876 18.3778 2.25293 18 2.25293C17.6222 2.25293 17.2506 2.34876 16.92 2.53146L4.545 9.30536C4.19159 9.49873 3.89658 9.78343 3.69078 10.1297C3.48497 10.4761 3.37591 10.8713 3.375 11.2741V24.7235C3.37591 25.1263 3.48497 25.5216 3.69078 25.8679C3.89658 26.2142 4.19159 26.4989 4.545 26.6922L16.92 33.4661C17.2506 33.6488 17.6222 33.7447 18 33.7447C18.3778 33.7447 18.7494 33.6488 19.08 33.4661L31.455 26.6922C31.8084 26.4989 32.1034 26.2142 32.3092 25.8679C32.515 25.5216 32.6241 25.1263 32.625 24.7235V11.2755C32.6248 10.872 32.5161 10.4759 32.3103 10.1287C32.1045 9.78163 31.809 9.49626 31.455 9.30255ZM18 4.50021L29.2978 10.6877L18 16.8752L6.70219 10.6877L18 4.50021ZM5.625 12.6565L16.875 18.813V30.8772L5.625 24.7249V12.6565ZM19.125 30.8772V18.8186L30.375 12.6565V24.7193L19.125 30.8772Z" fill="#04373B"/>
</svg>
