<svg width="68" height="27" viewBox="0 0 68 27" fill="none" xmlns="http://www.w3.org/2000/svg">
<path d="M7.30966 0.818181V27H0.981534V0.818181H7.30966ZM17.6104 0.818181V27H11.2823V0.818181H17.6104ZM31.2607 27H21.5831V0.818181H31.2479C33.9155 0.818181 36.2124 1.34233 38.1385 2.39062C40.0732 3.4304 41.5646 4.9304 42.6129 6.89062C43.6612 8.84233 44.1854 11.1776 44.1854 13.8963C44.1854 16.6236 43.6612 18.9673 42.6129 20.9276C41.5732 22.8878 40.0859 24.392 38.1513 25.4403C36.2166 26.4801 33.9197 27 31.2607 27ZM27.9112 21.6051H31.0178C32.4837 21.6051 33.7237 21.358 34.7379 20.8636C35.7607 20.3608 36.532 19.5469 37.0518 18.4219C37.5803 17.2884 37.8445 15.7798 37.8445 13.8963C37.8445 12.0128 37.5803 10.5128 37.0518 9.39631C36.5234 8.27131 35.7436 7.46165 34.7124 6.96733C33.6896 6.46449 32.4283 6.21307 30.9283 6.21307H27.9112V21.6051ZM45.8281 5.95739V0.818181H67.9574V5.95739H60.0185V27H53.7798V5.95739H45.8281Z" fill="#36C2CC"/>
</svg>
