<svg width="82" height="101" viewBox="0 0 82 101" fill="none" xmlns="http://www.w3.org/2000/svg">
<mask id="path-1-inside-1_109_2328" fill="white">
<path fill-rule="evenodd" clip-rule="evenodd" d="M82 39.7578C82 39.7577 82 39.7576 82 39.7576C82 17.8001 63.6437 0 41 0C18.3563 0 0 17.8001 0 39.7576C0 39.7576 0 39.7577 0 39.7578V100.923H82V39.7578Z"/>
</mask>
<path fill-rule="evenodd" clip-rule="evenodd" d="M82 39.7578C82 39.7577 82 39.7576 82 39.7576C82 17.8001 63.6437 0 41 0C18.3563 0 0 17.8001 0 39.7576C0 39.7576 0 39.7577 0 39.7578V100.923H82V39.7578Z" fill="url(#paint0_linear_109_2328)"/>
<path d="M0 100.923H-2V102.923H0V100.923ZM82 100.923V102.923H84V100.923H82ZM80 39.7576C80 39.7576 80 39.7576 80 39.7576C80 39.7576 80 39.7576 80 39.7576V39.7576V39.7576C80 39.7576 80 39.7576 80 39.7576C80 39.7576 80 39.7576 80 39.7576C80 39.7576 80 39.7576 80 39.7576C80 39.7576 80 39.7576 80 39.7576V39.7576V39.7576C80 39.7576 80 39.7576 80 39.7576C80 39.7576 80 39.7576 80 39.7576C80 39.7576 80 39.7576 80 39.7576C80 39.7576 80 39.7576 80 39.7576V39.7576V39.7576C80 39.7576 80 39.7576 80 39.7576C80 39.7576 80 39.7576 80 39.7576C80 39.7577 80 39.7577 80 39.7577C80 39.7577 80 39.7577 80 39.7577V39.7577V39.7577C80 39.7577 80 39.7577 80 39.7577C80 39.7577 80 39.7577 80 39.7577C80 39.7577 80 39.7577 80 39.7577C80 39.7577 80 39.7577 80 39.7577V39.7577V39.7577C80 39.7577 80 39.7577 80 39.7577C80 39.7577 80 39.7577 80 39.7577C80 39.7577 80 39.7577 80 39.7577C80 39.7577 80 39.7577 80 39.7577V39.7577V39.7577C80 39.7577 80 39.7577 80 39.7577C80 39.7577 80 39.7577 80 39.7577C80 39.7577 80 39.7577 80 39.7577C80 39.7577 80 39.7577 80 39.7577V39.7577V39.7577C80 39.7577 80 39.7577 80 39.7577C80 39.7577 80 39.7577 80 39.7577C80 39.7577 80 39.7577 80 39.7577C80 39.7577 80 39.7577 80 39.7577V39.7578V39.7578C80 39.7578 80 39.7578 80 39.7578C80 39.7578 80 39.7578 80 39.7578H84C84 39.7578 84 39.7578 84 39.7578C84 39.7578 84 39.7578 84 39.7578V39.7578V39.7577C84 39.7577 84 39.7577 84 39.7577C84 39.7577 84 39.7577 84 39.7577C84 39.7577 84 39.7577 84 39.7577C84 39.7577 84 39.7577 84 39.7577V39.7577V39.7577C84 39.7577 84 39.7577 84 39.7577C84 39.7577 84 39.7577 84 39.7577C84 39.7577 84 39.7577 84 39.7577C84 39.7577 84 39.7577 84 39.7577V39.7577V39.7577C84 39.7577 84 39.7577 84 39.7577C84 39.7577 84 39.7577 84 39.7577C84 39.7577 84 39.7577 84 39.7577C84 39.7577 84 39.7577 84 39.7577V39.7577V39.7577C84 39.7577 84 39.7577 84 39.7577C84 39.7577 84 39.7577 84 39.7577C84 39.7577 84 39.7577 84 39.7577C84 39.7577 84 39.7577 84 39.7577V39.7577V39.7577C84 39.7577 84 39.7577 84 39.7577C84 39.7577 84 39.7577 84 39.7576C84 39.7576 84 39.7576 84 39.7576C84 39.7576 84 39.7576 84 39.7576V39.7576V39.7576C84 39.7576 84 39.7576 84 39.7576C84 39.7576 84 39.7576 84 39.7576C84 39.7576 84 39.7576 84 39.7576C84 39.7576 84 39.7576 84 39.7576V39.7576V39.7576C84 39.7576 84 39.7576 84 39.7576C84 39.7576 84 39.7576 84 39.7576C84 39.7576 84 39.7576 84 39.7576C84 39.7576 84 39.7576 84 39.7576V39.7576V39.7576C84 39.7576 84 39.7576 84 39.7576C84 39.7576 84 39.7576 84 39.7576H80ZM41 2C62.5976 2 80 18.9622 80 39.7576H84C84 16.6379 64.6898 -2 41 -2V2ZM2 39.7576C2 18.9622 19.4024 2 41 2V-2C17.3102 -2 -2 16.6379 -2 39.7576H2ZM2 39.7578C2 39.7578 2 39.7578 2 39.7578C2 39.7578 2 39.7578 2 39.7578V39.7578V39.7577C2 39.7577 2 39.7577 2 39.7577C2 39.7577 2 39.7577 2 39.7577C2 39.7577 2 39.7577 2 39.7577C2 39.7577 2 39.7577 2 39.7577V39.7577V39.7577C2 39.7577 2 39.7577 2 39.7577C2 39.7577 2 39.7577 2 39.7577C2 39.7577 2 39.7577 2 39.7577C2 39.7577 2 39.7577 2 39.7577V39.7577V39.7577C2 39.7577 2 39.7577 2 39.7577C2 39.7577 2 39.7577 2 39.7577C2 39.7577 2 39.7577 2 39.7577C2 39.7577 2 39.7577 2 39.7577V39.7577V39.7577C2 39.7577 2 39.7577 2 39.7577C2 39.7577 2 39.7577 2 39.7577C2 39.7577 2 39.7577 2 39.7577C2 39.7577 2 39.7577 2 39.7577V39.7577V39.7577C2 39.7577 2 39.7577 2 39.7577C2 39.7577 2 39.7577 2 39.7576C2 39.7576 2 39.7576 2 39.7576C2 39.7576 2 39.7576 2 39.7576V39.7576V39.7576C2 39.7576 2 39.7576 2 39.7576C2 39.7576 2 39.7576 2 39.7576C2 39.7576 2 39.7576 2 39.7576C2 39.7576 2 39.7576 2 39.7576V39.7576V39.7576C2 39.7576 2 39.7576 2 39.7576C2 39.7576 2 39.7576 2 39.7576C2 39.7576 2 39.7576 2 39.7576C2 39.7576 2 39.7576 2 39.7576V39.7576V39.7576C2 39.7576 2 39.7576 2 39.7576C2 39.7576 2 39.7576 2 39.7576H-2C-2 39.7576 -2 39.7576 -2 39.7576C-2 39.7576 -2 39.7576 -2 39.7576V39.7576V39.7576C-2 39.7576 -2 39.7576 -2 39.7576C-2 39.7576 -2 39.7576 -2 39.7576C-2 39.7576 -2 39.7576 -2 39.7576C-2 39.7576 -2 39.7576 -2 39.7576V39.7576V39.7576C-2 39.7576 -2 39.7576 -2 39.7576C-2 39.7576 -2 39.7576 -2 39.7576C-2 39.7576 -2 39.7576 -2 39.7576C-2 39.7576 -2 39.7576 -2 39.7576V39.7576V39.7576C-2 39.7576 -2 39.7576 -2 39.7576C-2 39.7576 -2 39.7576 -2 39.7576C-2 39.7577 -2 39.7577 -2 39.7577C-2 39.7577 -2 39.7577 -2 39.7577V39.7577V39.7577C-2 39.7577 -2 39.7577 -2 39.7577C-2 39.7577 -2 39.7577 -2 39.7577C-2 39.7577 -2 39.7577 -2 39.7577C-2 39.7577 -2 39.7577 -2 39.7577V39.7577V39.7577C-2 39.7577 -2 39.7577 -2 39.7577C-2 39.7577 -2 39.7577 -2 39.7577C-2 39.7577 -2 39.7577 -2 39.7577C-2 39.7577 -2 39.7577 -2 39.7577V39.7577V39.7577C-2 39.7577 -2 39.7577 -2 39.7577C-2 39.7577 -2 39.7577 -2 39.7577C-2 39.7577 -2 39.7577 -2 39.7577C-2 39.7577 -2 39.7577 -2 39.7577V39.7577V39.7577C-2 39.7577 -2 39.7577 -2 39.7577C-2 39.7577 -2 39.7577 -2 39.7577C-2 39.7577 -2 39.7577 -2 39.7577C-2 39.7577 -2 39.7577 -2 39.7577V39.7578V39.7578C-2 39.7578 -2 39.7578 -2 39.7578C-2 39.7578 -2 39.7578 -2 39.7578H2ZM2 100.923V39.7578H-2V100.923H2ZM82 98.9233H0V102.923H82V98.9233ZM80 39.7578V100.923H84V39.7578H80Z" fill="white" mask="url(#path-1-inside-1_109_2328)"/>
<path d="M16.5 32L17.9593 36.4914H22.6819L18.8613 39.2672L20.3206 43.7586L16.5 40.9828L12.6794 43.7586L14.1387 39.2672L10.3181 36.4914H15.0407L16.5 32Z" fill="#FFF8BB"/>
<path d="M62.5 23L64.1839 28.1824H69.6329L65.2245 31.3853L66.9084 36.5676L62.5 33.3647L58.0916 36.5676L59.7755 31.3853L55.3671 28.1824H60.8161L62.5 23Z" fill="#FFF8BB"/>
<path fill-rule="evenodd" clip-rule="evenodd" d="M82 77.2672C71.2809 70.8661 56.641 66.9233 40.5 66.9233C24.8554 66.9233 10.621 70.6273 0 76.6837V100.923H82V77.2672Z" fill="#B4B4B4"/>
<rect x="40" y="72" width="3" height="29" fill="#1D6F00"/>
<mask id="path-7-inside-2_109_2328" fill="white">
<path fill-rule="evenodd" clip-rule="evenodd" d="M82 39.7578C82 39.7577 82 39.7576 82 39.7576C82 17.8001 63.6437 0 41 0C18.3563 0 0 17.8001 0 39.7576C0 39.7576 0 39.7577 0 39.7578V100.923H82V39.7578Z"/>
</mask>
<path d="M0 100.923H-2V102.923H0V100.923ZM82 100.923V102.923H84V100.923H82ZM80 39.7576C80 39.7576 80 39.7576 80 39.7576C80 39.7576 80 39.7576 80 39.7576V39.7576V39.7576C80 39.7576 80 39.7576 80 39.7576C80 39.7576 80 39.7576 80 39.7576C80 39.7576 80 39.7576 80 39.7576C80 39.7576 80 39.7576 80 39.7576V39.7576V39.7576C80 39.7576 80 39.7576 80 39.7576C80 39.7576 80 39.7576 80 39.7576C80 39.7576 80 39.7576 80 39.7576C80 39.7576 80 39.7576 80 39.7576V39.7576V39.7576C80 39.7576 80 39.7576 80 39.7576C80 39.7576 80 39.7576 80 39.7576C80 39.7577 80 39.7577 80 39.7577C80 39.7577 80 39.7577 80 39.7577V39.7577V39.7577C80 39.7577 80 39.7577 80 39.7577C80 39.7577 80 39.7577 80 39.7577C80 39.7577 80 39.7577 80 39.7577C80 39.7577 80 39.7577 80 39.7577V39.7577V39.7577C80 39.7577 80 39.7577 80 39.7577C80 39.7577 80 39.7577 80 39.7577C80 39.7577 80 39.7577 80 39.7577C80 39.7577 80 39.7577 80 39.7577V39.7577V39.7577C80 39.7577 80 39.7577 80 39.7577C80 39.7577 80 39.7577 80 39.7577C80 39.7577 80 39.7577 80 39.7577C80 39.7577 80 39.7577 80 39.7577V39.7577V39.7577C80 39.7577 80 39.7577 80 39.7577C80 39.7577 80 39.7577 80 39.7577C80 39.7577 80 39.7577 80 39.7577C80 39.7577 80 39.7577 80 39.7577V39.7578V39.7578C80 39.7578 80 39.7578 80 39.7578C80 39.7578 80 39.7578 80 39.7578H84C84 39.7578 84 39.7578 84 39.7578C84 39.7578 84 39.7578 84 39.7578V39.7578V39.7577C84 39.7577 84 39.7577 84 39.7577C84 39.7577 84 39.7577 84 39.7577C84 39.7577 84 39.7577 84 39.7577C84 39.7577 84 39.7577 84 39.7577V39.7577V39.7577C84 39.7577 84 39.7577 84 39.7577C84 39.7577 84 39.7577 84 39.7577C84 39.7577 84 39.7577 84 39.7577C84 39.7577 84 39.7577 84 39.7577V39.7577V39.7577C84 39.7577 84 39.7577 84 39.7577C84 39.7577 84 39.7577 84 39.7577C84 39.7577 84 39.7577 84 39.7577C84 39.7577 84 39.7577 84 39.7577V39.7577V39.7577C84 39.7577 84 39.7577 84 39.7577C84 39.7577 84 39.7577 84 39.7577C84 39.7577 84 39.7577 84 39.7577C84 39.7577 84 39.7577 84 39.7577V39.7577V39.7577C84 39.7577 84 39.7577 84 39.7577C84 39.7577 84 39.7577 84 39.7576C84 39.7576 84 39.7576 84 39.7576C84 39.7576 84 39.7576 84 39.7576V39.7576V39.7576C84 39.7576 84 39.7576 84 39.7576C84 39.7576 84 39.7576 84 39.7576C84 39.7576 84 39.7576 84 39.7576C84 39.7576 84 39.7576 84 39.7576V39.7576V39.7576C84 39.7576 84 39.7576 84 39.7576C84 39.7576 84 39.7576 84 39.7576C84 39.7576 84 39.7576 84 39.7576C84 39.7576 84 39.7576 84 39.7576V39.7576V39.7576C84 39.7576 84 39.7576 84 39.7576C84 39.7576 84 39.7576 84 39.7576H80ZM41 2C62.5976 2 80 18.9622 80 39.7576H84C84 16.6379 64.6898 -2 41 -2V2ZM2 39.7576C2 18.9622 19.4024 2 41 2V-2C17.3102 -2 -2 16.6379 -2 39.7576H2ZM2 39.7578C2 39.7578 2 39.7578 2 39.7578C2 39.7578 2 39.7578 2 39.7578V39.7578V39.7577C2 39.7577 2 39.7577 2 39.7577C2 39.7577 2 39.7577 2 39.7577C2 39.7577 2 39.7577 2 39.7577C2 39.7577 2 39.7577 2 39.7577V39.7577V39.7577C2 39.7577 2 39.7577 2 39.7577C2 39.7577 2 39.7577 2 39.7577C2 39.7577 2 39.7577 2 39.7577C2 39.7577 2 39.7577 2 39.7577V39.7577V39.7577C2 39.7577 2 39.7577 2 39.7577C2 39.7577 2 39.7577 2 39.7577C2 39.7577 2 39.7577 2 39.7577C2 39.7577 2 39.7577 2 39.7577V39.7577V39.7577C2 39.7577 2 39.7577 2 39.7577C2 39.7577 2 39.7577 2 39.7577C2 39.7577 2 39.7577 2 39.7577C2 39.7577 2 39.7577 2 39.7577V39.7577V39.7577C2 39.7577 2 39.7577 2 39.7577C2 39.7577 2 39.7577 2 39.7576C2 39.7576 2 39.7576 2 39.7576C2 39.7576 2 39.7576 2 39.7576V39.7576V39.7576C2 39.7576 2 39.7576 2 39.7576C2 39.7576 2 39.7576 2 39.7576C2 39.7576 2 39.7576 2 39.7576C2 39.7576 2 39.7576 2 39.7576V39.7576V39.7576C2 39.7576 2 39.7576 2 39.7576C2 39.7576 2 39.7576 2 39.7576C2 39.7576 2 39.7576 2 39.7576C2 39.7576 2 39.7576 2 39.7576V39.7576V39.7576C2 39.7576 2 39.7576 2 39.7576C2 39.7576 2 39.7576 2 39.7576H-2C-2 39.7576 -2 39.7576 -2 39.7576C-2 39.7576 -2 39.7576 -2 39.7576V39.7576V39.7576C-2 39.7576 -2 39.7576 -2 39.7576C-2 39.7576 -2 39.7576 -2 39.7576C-2 39.7576 -2 39.7576 -2 39.7576C-2 39.7576 -2 39.7576 -2 39.7576V39.7576V39.7576C-2 39.7576 -2 39.7576 -2 39.7576C-2 39.7576 -2 39.7576 -2 39.7576C-2 39.7576 -2 39.7576 -2 39.7576C-2 39.7576 -2 39.7576 -2 39.7576V39.7576V39.7576C-2 39.7576 -2 39.7576 -2 39.7576C-2 39.7576 -2 39.7576 -2 39.7576C-2 39.7577 -2 39.7577 -2 39.7577C-2 39.7577 -2 39.7577 -2 39.7577V39.7577V39.7577C-2 39.7577 -2 39.7577 -2 39.7577C-2 39.7577 -2 39.7577 -2 39.7577C-2 39.7577 -2 39.7577 -2 39.7577C-2 39.7577 -2 39.7577 -2 39.7577V39.7577V39.7577C-2 39.7577 -2 39.7577 -2 39.7577C-2 39.7577 -2 39.7577 -2 39.7577C-2 39.7577 -2 39.7577 -2 39.7577C-2 39.7577 -2 39.7577 -2 39.7577V39.7577V39.7577C-2 39.7577 -2 39.7577 -2 39.7577C-2 39.7577 -2 39.7577 -2 39.7577C-2 39.7577 -2 39.7577 -2 39.7577C-2 39.7577 -2 39.7577 -2 39.7577V39.7577V39.7577C-2 39.7577 -2 39.7577 -2 39.7577C-2 39.7577 -2 39.7577 -2 39.7577C-2 39.7577 -2 39.7577 -2 39.7577C-2 39.7577 -2 39.7577 -2 39.7577V39.7578V39.7578C-2 39.7578 -2 39.7578 -2 39.7578C-2 39.7578 -2 39.7578 -2 39.7578H2ZM2 100.923V39.7578H-2V100.923H2ZM82 98.9233H0V102.923H82V98.9233ZM80 39.7578V100.923H84V39.7578H80Z" fill="white" mask="url(#path-7-inside-2_109_2328)"/>
<ellipse cx="39.8405" cy="60.5597" rx="8.42032" ry="12.6305" fill="#FF7777"/>
<ellipse cx="43.3334" cy="57.531" rx="5.35134" ry="11.2271" transform="rotate(21.5862 43.3334 57.531)" fill="#EB5757"/>
<ellipse cx="37.6062" cy="57.5189" rx="5.35134" ry="11.2271" transform="rotate(-20.822 37.6062 57.5189)" fill="#EB5757"/>
<ellipse cx="47.1164" cy="60.8194" rx="7.04927" ry="14.1925" transform="rotate(29.7784 47.1164 60.8194)" fill="#E23B3B"/>
<ellipse cx="35.4688" cy="61.2376" rx="6.20364" ry="14.1925" transform="rotate(-30 35.4688 61.2376)" fill="#E23B3B"/>
<defs>
<linearGradient id="paint0_linear_109_2328" x1="41" y1="0" x2="41" y2="100.923" gradientUnits="userSpaceOnUse">
<stop stop-color="#1E1E2E"/>
<stop offset="0.598958" stop-color="#050072" stop-opacity="0.74"/>
<stop offset="1" stop-color="#444272" stop-opacity="0.79"/>
</linearGradient>
</defs>
</svg>
