<svg width="155" height="162" viewBox="0 0 155 162" fill="none" xmlns="http://www.w3.org/2000/svg">
<path d="M39.8608 65.9759H74.4C75.0851 65.9759 75.7422 65.6918 76.2267 65.1862C76.7112 64.6806 76.9833 63.9948 76.9833 63.2797C76.9833 62.5646 76.7112 61.8788 76.2267 61.3732C75.7422 60.8676 75.0851 60.5835 74.4 60.5835H39.8608C39.1757 60.5835 38.5186 60.8676 38.0341 61.3732C37.5497 61.8788 37.2775 62.5646 37.2775 63.2797C37.2775 63.9948 37.5497 64.6806 38.0341 65.1862C38.5186 65.6918 39.1757 65.9759 39.8608 65.9759Z" fill="#3D3D63"/>
<path d="M39.8608 84.283H74.4C75.0851 84.283 75.7422 83.999 76.2267 83.4933C76.7112 82.9877 76.9833 82.3019 76.9833 81.5868C76.9833 80.8718 76.7112 80.186 76.2267 79.6804C75.7422 79.1747 75.0851 78.8907 74.4 78.8907H39.8608C39.1757 78.8907 38.5186 79.1747 38.0341 79.6804C37.5497 80.186 37.2775 80.8718 37.2775 81.5868C37.2775 82.3019 37.5497 82.9877 38.0341 83.4933C38.5186 83.999 39.1757 84.283 39.8608 84.283Z" fill="#3D3D63"/>
<path d="M145.623 56.4583C147.425 53.2107 148.059 49.3987 147.41 45.7071C146.761 42.0156 144.873 38.6864 142.083 36.3177C142.993 33.4033 142.839 30.2407 141.651 27.4375C140.463 24.6344 138.324 22.3884 135.645 21.1311C132.967 19.8737 129.937 19.6937 127.139 20.6257C124.341 21.5576 121.972 23.5358 120.487 26.18L118.704 29.3616C118.135 29.1315 117.507 29.119 116.93 29.3263C116.353 29.5335 115.865 29.9472 115.553 30.494L110.903 38.8252H21.2092C19.3614 38.8323 17.5912 39.6015 16.2846 40.9652C14.978 42.3289 14.241 44.1764 14.2342 46.1049V117.069C14.241 118.997 14.978 120.845 16.2846 122.208C17.5912 123.572 19.3614 124.341 21.2092 124.348H56.8334V135.942C56.8316 136.417 56.9501 136.884 57.1769 137.296C57.4037 137.708 57.7308 138.05 58.125 138.288C58.5187 138.521 58.9641 138.642 59.4167 138.638C59.8605 138.637 60.2964 138.516 60.6825 138.288L84.3975 124.348H122.088C123.938 124.348 125.712 123.581 127.02 122.216C128.328 120.851 129.063 118.999 129.063 117.069V64.8435L139.939 45.1882C140.231 44.633 140.326 43.9882 140.208 43.3671C140.09 42.7459 139.766 42.188 139.293 41.791L139.552 41.2787C141.101 42.8837 142.097 44.9782 142.387 47.2361C142.677 49.4939 142.243 51.7883 141.153 53.7621L133.119 68.2676C131.977 70.3346 131.667 72.7903 132.258 75.0956C132.849 77.4008 134.292 79.367 136.271 80.5623C136.861 80.8846 137.548 80.9564 138.188 80.7626C138.828 80.5689 139.371 80.1246 139.705 79.5225C140.038 78.9205 140.136 78.2072 139.977 77.5318C139.819 76.8563 139.416 76.2709 138.854 75.8979C138.06 75.4185 137.48 74.6296 137.243 73.7043C137.005 72.7791 137.13 71.7934 137.588 70.9638L145.623 56.4583ZM124 117.069C124 117.317 123.953 117.562 123.862 117.791C123.771 118.02 123.638 118.228 123.47 118.403C123.302 118.579 123.103 118.718 122.884 118.812C122.664 118.907 122.429 118.956 122.192 118.956H83.8034C83.3596 118.957 82.9236 119.078 82.5375 119.307L62 131.332V121.652C62 120.937 61.7279 120.251 61.2434 119.746C60.7589 119.24 60.1018 118.956 59.4167 118.956H21.2092C20.7317 118.949 20.2756 118.748 19.9379 118.396C19.6002 118.043 19.4075 117.567 19.4009 117.069V46.1049C19.4075 45.6065 19.6002 45.1305 19.9379 44.7781C20.2756 44.4256 20.7317 44.2246 21.2092 44.2176H107.906L87.2392 81.3981C86.9299 81.9906 86.8293 82.6775 86.955 83.3394L90.0292 97.1978H39.8609C39.1757 97.1978 38.5186 97.4818 38.0342 97.9875C37.5497 98.4931 37.2775 99.1789 37.2775 99.894C37.2775 100.609 37.5497 101.295 38.0342 101.8C38.5186 102.306 39.1757 102.59 39.8609 102.59H93.31H93.6459C93.8092 102.603 93.9733 102.603 94.1367 102.59L110.283 97.4404C110.902 97.2429 111.427 96.8099 111.755 96.2271L124 74.1723V117.069ZM95.2734 96.4698L93.4392 88.1655L103.101 93.9893L95.2734 96.4698ZM108.578 91.0774L93.0775 81.7486L118.833 35.5089L134.333 44.8377L108.578 91.0774ZM136.581 35.9133L134.85 39.0139L123.173 31.9769L124.904 28.8762C125.34 28.0616 125.926 27.3455 126.629 26.7696C127.332 26.1936 128.138 25.7693 129 25.5213C129.861 25.2733 130.761 25.2066 131.648 25.325C132.535 25.4434 133.39 25.7446 134.164 26.211C134.938 26.6775 135.615 27.2999 136.157 28.0421C136.698 28.7843 137.093 29.6314 137.318 30.5343C137.543 31.4371 137.593 32.3776 137.467 33.301C137.34 34.2244 137.039 35.1124 136.581 35.9133Z" fill="#3D3D63"/>
</svg>
