<svg width="54" height="54" viewBox="0 0 54 54" fill="none" xmlns="http://www.w3.org/2000/svg">
<circle cx="27" cy="27" r="27" fill="white"/>
<path d="M54 27C54 34.1608 51.1554 41.0284 46.0919 46.0919C41.0284 51.1554 34.1608 54 27 54C19.8392 54 12.9716 51.1554 7.90812 46.0919C2.84464 41.0284 0 34.1608 0 27C0 19.8392 2.84464 12.9716 7.90812 7.90812C12.9716 2.84464 19.8392 0 27 0C34.1608 0 41.0284 2.84464 46.0919 7.90812C51.1554 12.9716 54 19.8392 54 27ZM28.6875 15.1875C28.6875 14.7399 28.5097 14.3107 28.1932 13.9943C27.8768 13.6778 27.4476 13.5 27 13.5C26.5524 13.5 26.1232 13.6778 25.8068 13.9943C25.4903 14.3107 25.3125 14.7399 25.3125 15.1875V25.3125H15.1875C14.7399 25.3125 14.3107 25.4903 13.9943 25.8068C13.6778 26.1232 13.5 26.5524 13.5 27C13.5 27.4476 13.6778 27.8768 13.9943 28.1932C14.3107 28.5097 14.7399 28.6875 15.1875 28.6875H25.3125V38.8125C25.3125 39.2601 25.4903 39.6893 25.8068 40.0057C26.1232 40.3222 26.5524 40.5 27 40.5C27.4476 40.5 27.8768 40.3222 28.1932 40.0057C28.5097 39.6893 28.6875 39.2601 28.6875 38.8125V28.6875H38.8125C39.2601 28.6875 39.6893 28.5097 40.0057 28.1932C40.3222 27.8768 40.5 27.4476 40.5 27C40.5 26.5524 40.3222 26.1232 40.0057 25.8068C39.6893 25.4903 39.2601 25.3125 38.8125 25.3125H28.6875V15.1875Z" fill="#B3E9EB"/>
</svg>
