<svg width="19" height="22" viewBox="0 0 19 22" fill="none" xmlns="http://www.w3.org/2000/svg">
<path d="M17.75 4.5H14.375V3.375C14.375 2.67881 14.0984 2.01113 13.6062 1.51884C13.1139 1.02656 12.4462 0.75 11.75 0.75H7.25C6.55381 0.75 5.88613 1.02656 5.39384 1.51884C4.90156 2.01113 4.625 2.67881 4.625 3.375V4.5H1.25C0.951631 4.5 0.665483 4.61853 0.454505 4.8295C0.243526 5.04048 0.125 5.32663 0.125 5.625C0.125 5.92337 0.243526 6.20952 0.454505 6.4205C0.665483 6.63147 0.951631 6.75 1.25 6.75H1.625V19.5C1.625 19.9973 1.82254 20.4742 2.17417 20.8258C2.52581 21.1775 3.00272 21.375 3.5 21.375H15.5C15.9973 21.375 16.4742 21.1775 16.8258 20.8258C17.1775 20.4742 17.375 19.9973 17.375 19.5V6.75H17.75C18.0484 6.75 18.3345 6.63147 18.5455 6.4205C18.7565 6.20952 18.875 5.92337 18.875 5.625C18.875 5.32663 18.7565 5.04048 18.5455 4.8295C18.3345 4.61853 18.0484 4.5 17.75 4.5ZM6.875 3.375C6.875 3.27554 6.91451 3.18016 6.98483 3.10984C7.05516 3.03951 7.15054 3 7.25 3H11.75C11.8495 3 11.9448 3.03951 12.0152 3.10984C12.0855 3.18016 12.125 3.27554 12.125 3.375V4.5H6.875V3.375ZM15.125 19.125H3.875V6.75H15.125V19.125ZM8.375 9.75V15.75C8.375 16.0484 8.25647 16.3345 8.0455 16.5455C7.83452 16.7565 7.54837 16.875 7.25 16.875C6.95163 16.875 6.66548 16.7565 6.4545 16.5455C6.24353 16.3345 6.125 16.0484 6.125 15.75V9.75C6.125 9.45163 6.24353 9.16548 6.4545 8.9545C6.66548 8.74353 6.95163 8.625 7.25 8.625C7.54837 8.625 7.83452 8.74353 8.0455 8.9545C8.25647 9.16548 8.375 9.45163 8.375 9.75ZM12.875 9.75V15.75C12.875 16.0484 12.7565 16.3345 12.5455 16.5455C12.3345 16.7565 12.0484 16.875 11.75 16.875C11.4516 16.875 11.1655 16.7565 10.9545 16.5455C10.7435 16.3345 10.625 16.0484 10.625 15.75V9.75C10.625 9.45163 10.7435 9.16548 10.9545 8.9545C11.1655 8.74353 11.4516 8.625 11.75 8.625C12.0484 8.625 12.3345 8.74353 12.5455 8.9545C12.7565 9.16548 12.875 9.45163 12.875 9.75Z" fill="#076267"/>
</svg>
