<svg width="36" height="36" viewBox="0 0 36 36" fill="none" xmlns="http://www.w3.org/2000/svg">
<path d="M31.5 6.75H22.5C21.6267 6.75 20.7655 6.95332 19.9844 7.34385C19.2034 7.73438 18.524 8.3014 18 9C17.476 8.3014 16.7966 7.73438 16.0156 7.34385C15.2345 6.95332 14.3733 6.75 13.5 6.75H4.5C3.90326 6.75 3.33097 6.98705 2.90901 7.40901C2.48705 7.83097 2.25 8.40326 2.25 9V27C2.25 27.5967 2.48705 28.169 2.90901 28.591C3.33097 29.0129 3.90326 29.25 4.5 29.25H13.5C14.3951 29.25 15.2536 29.6056 15.8865 30.2385C16.5194 30.8714 16.875 31.7299 16.875 32.625C16.875 32.9234 16.9935 33.2095 17.2045 33.4205C17.4155 33.6315 17.7016 33.75 18 33.75C18.2984 33.75 18.5845 33.6315 18.7955 33.4205C19.0065 33.2095 19.125 32.9234 19.125 32.625C19.125 31.7299 19.4806 30.8714 20.1135 30.2385C20.7464 29.6056 21.6049 29.25 22.5 29.25H31.5C32.0967 29.25 32.669 29.0129 33.091 28.591C33.5129 28.169 33.75 27.5967 33.75 27V9C33.75 8.40326 33.5129 7.83097 33.091 7.40901C32.669 6.98705 32.0967 6.75 31.5 6.75ZM13.5 27H4.5V9H13.5C14.3951 9 15.2536 9.35558 15.8865 9.98851C16.5194 10.6214 16.875 11.4799 16.875 12.375V28.125C15.9022 27.393 14.7174 26.9981 13.5 27ZM31.5 27H22.5C21.2826 26.9981 20.0978 27.393 19.125 28.125V12.375C19.125 11.4799 19.4806 10.6214 20.1135 9.98851C20.7464 9.35558 21.6049 9 22.5 9H31.5V27ZM22.5 12.375H28.125C28.4234 12.375 28.7095 12.4935 28.9205 12.7045C29.1315 12.9155 29.25 13.2016 29.25 13.5C29.25 13.7984 29.1315 14.0845 28.9205 14.2955C28.7095 14.5065 28.4234 14.625 28.125 14.625H22.5C22.2016 14.625 21.9155 14.5065 21.7045 14.2955C21.4935 14.0845 21.375 13.7984 21.375 13.5C21.375 13.2016 21.4935 12.9155 21.7045 12.7045C21.9155 12.4935 22.2016 12.375 22.5 12.375ZM29.25 18C29.25 18.2984 29.1315 18.5845 28.9205 18.7955C28.7095 19.0065 28.4234 19.125 28.125 19.125H22.5C22.2016 19.125 21.9155 19.0065 21.7045 18.7955C21.4935 18.5845 21.375 18.2984 21.375 18C21.375 17.7016 21.4935 17.4155 21.7045 17.2045C21.9155 16.9935 22.2016 16.875 22.5 16.875H28.125C28.4234 16.875 28.7095 16.9935 28.9205 17.2045C29.1315 17.4155 29.25 17.7016 29.25 18ZM29.25 22.5C29.25 22.7984 29.1315 23.0845 28.9205 23.2955C28.7095 23.5065 28.4234 23.625 28.125 23.625H22.5C22.2016 23.625 21.9155 23.5065 21.7045 23.2955C21.4935 23.0845 21.375 22.7984 21.375 22.5C21.375 22.2016 21.4935 21.9155 21.7045 21.7045C21.9155 21.4935 22.2016 21.375 22.5 21.375H28.125C28.4234 21.375 28.7095 21.4935 28.9205 21.7045C29.1315 21.9155 29.25 22.2016 29.25 22.5Z" fill="#9E9E9E"/>
</svg>
