<svg width="36" height="36" viewBox="0 0 36 36" fill="none" xmlns="http://www.w3.org/2000/svg">
<path d="M18 33C26.2843 33 33 26.2843 33 18C33 9.71573 26.2843 3 18 3C9.71573 3 3 9.71573 3 18C3 26.2843 9.71573 33 18 33Z" stroke="#9E9E9E" stroke-width="2.3"/>
<path d="M9 7.065C10.17 8.1315 12.582 11.0445 12.8625 14.1705C13.125 17.094 15.0525 19.47 18 19.5C19.1325 19.512 20.277 18.6945 20.274 17.562C20.274 17.2125 20.2155 16.854 20.1255 16.524C19.9761 16.0182 20.0205 15.4749 20.25 15C21.165 13.1145 22.965 12.6075 24.39 11.583C25.0215 11.1285 25.599 10.6485 25.8525 10.263C26.556 9.198 27.258 7.0665 26.907 6M33 19.5C32.505 20.8965 32.1555 24.5625 26.577 24.621C26.577 24.621 21.6375 24.621 20.1555 27.414C18.969 29.649 19.6605 32.0685 20.1555 33" stroke="#9E9E9E" stroke-width="2.3"/>
</svg>
