<svg width="36" height="36" viewBox="0 0 36 36" fill="none" xmlns="http://www.w3.org/2000/svg">
<path d="M7.5 18H4.5L18 4.5L31.5 18H28.5M7.5 18V28.5C7.5 29.2956 7.81607 30.0587 8.37868 30.6213C8.94129 31.1839 9.70435 31.5 10.5 31.5H25.5C26.2956 31.5 27.0587 31.1839 27.6213 30.6213C28.1839 30.0587 28.5 29.2956 28.5 28.5V18" stroke="#9E9E9E" stroke-width="2" stroke-linecap="round" stroke-linejoin="round"/>
<path d="M13.5 31.5V22.5C13.5 21.7044 13.8161 20.9413 14.3787 20.3787C14.9413 19.8161 15.7044 19.5 16.5 19.5H19.5C20.2956 19.5 21.0587 19.8161 21.6213 20.3787C22.1839 20.9413 22.5 21.7044 22.5 22.5V31.5" stroke="#9E9E9E" stroke-width="2" stroke-linecap="round" stroke-linejoin="round"/>
</svg>
