<svg width="20" height="20" viewBox="0 0 20 20" fill="none" xmlns="http://www.w3.org/2000/svg">
<path d="M10 1C14.9706 1 19 5.02944 19 10C19 14.9706 14.9706 19 10 19C5.02944 19 1 14.9706 1 10C1 5.02944 5.02944 1 10 1Z" stroke="#04373B" stroke-width="2" stroke-linecap="round"/>
<path d="M6 14C6.5 13 7.79086 12 10 12C12.2091 12 13.5 13 14 14" stroke="#04373B" stroke-width="2" stroke-linecap="round"/>
<path d="M7 9C7.55228 9 8 8.32843 8 7.5C8 6.67157 7.55228 6 7 6C6.44772 6 6 6.67157 6 7.5C6 8.32843 6.44772 9 7 9Z" fill="#04373B"/>
<path d="M13 9C13.5523 9 14 8.32843 14 7.5C14 6.67157 13.5523 6 13 6C12.4477 6 12 6.67157 12 7.5C12 8.32843 12.4477 9 13 9Z" fill="#04373B"/>
</svg>
