<svg width="36" height="36" viewBox="0 0 36 36" fill="none" xmlns="http://www.w3.org/2000/svg">
<path d="M25.5 3V6H30.0105C30.8325 6 31.5 6.6675 31.5 7.4895V31.5105C31.4996 31.9054 31.3425 32.284 31.0633 32.5633C30.784 32.8425 30.4054 32.9996 30.0105 33H5.9895C5.59446 33 5.2156 32.8431 4.93626 32.5637C4.65693 32.2844 4.5 31.9055 4.5 31.5105V7.4895C4.5 6.6675 5.1675 6 5.9895 6H10.5V3H25.5ZM10.5 9H7.5V30H28.5V9H25.5V12H10.5V9ZM13.5 24V27H10.5V24H13.5ZM13.5 19.5V22.5H10.5V19.5H13.5ZM13.5 15V18H10.5V15H13.5ZM22.5 6H13.5V9H22.5V6Z" fill="white"/>
</svg>
