<svg width="342" height="51" viewBox="0 0 342 51" fill="none" xmlns="http://www.w3.org/2000/svg">
<rect width="342" height="51" rx="8" fill="#FEE500"/>
<path d="M131.944 19.288V19.432C131.944 23.368 130.504 26.6 125.928 28.856L126.648 29.88C131.832 27.304 133.24 23.464 133.24 19.288H131.944ZM126.712 19.288V20.36H132.728V19.288H126.712ZM131.736 22.872L125.992 23.256L126.2 24.44L131.736 23.896V22.872ZM135.576 17.768V32.248H136.92V17.768H135.576ZM136.552 23.64V24.744H139.224V23.64H136.552ZM146.663 19.288V19.432C146.663 23.368 145.223 26.6 140.647 28.856L141.367 29.88C146.551 27.304 147.959 23.464 147.959 19.288H146.663ZM141.431 19.288V20.36H147.447V19.288H141.431ZM146.455 22.872L140.711 23.256L140.919 24.44L146.455 23.896V22.872ZM150.295 17.768V32.248H151.639V17.768H150.295ZM151.271 23.64V24.744H153.943V23.64H151.271ZM161.094 25.96V29.56H162.422V25.96H161.094ZM161.766 18.728C158.71 18.728 156.502 20.216 156.502 22.52C156.502 24.824 158.71 26.312 161.766 26.312C164.822 26.312 167.014 24.824 167.014 22.52C167.014 20.216 164.822 18.728 161.766 18.728ZM161.766 19.784C164.054 19.784 165.734 20.872 165.734 22.52C165.734 24.168 164.054 25.256 161.766 25.256C159.462 25.256 157.782 24.168 157.782 22.52C157.782 20.872 159.462 19.784 161.766 19.784ZM155.238 29.304V30.408H168.342V29.304H155.238ZM169.956 29.368V30.472H183.06V29.368H169.956ZM175.812 26.264V29.832H177.14V26.264H175.812ZM171.54 18.856V19.928H180.132V22.168H171.588V26.136H172.9V23.24H181.444V18.856H171.54ZM171.588 25.576V26.664H181.78V25.576H171.588ZM193.28 19.032V21.624C193.28 24.36 191.536 27.128 189.392 28.152L190.208 29.24C192.576 28.04 194.368 24.952 194.368 21.624V19.032H193.28ZM193.504 19.032V21.624C193.504 24.84 195.312 27.816 197.664 28.968L198.464 27.912C196.32 26.92 194.592 24.264 194.592 21.624V19.032H193.504ZM199.968 17.768V32.264H201.296V17.768H199.968ZM207.743 19.272V20.44C207.743 22.504 206.303 24.36 204.111 25.128L204.815 26.168C207.231 25.304 208.831 23.096 208.831 20.44V19.272H207.743ZM207.983 19.272V20.424C207.983 22.92 209.519 25.048 211.903 25.88L212.591 24.84C210.463 24.12 209.071 22.344 209.071 20.424V19.272H207.983ZM204.527 18.792V19.88H212.255V18.792H204.527ZM214.079 17.784V26.488H215.407V17.784H214.079ZM215.039 21.592V22.696H217.551V21.592H215.039ZM206.015 27.256V28.36H214.079V32.248H215.407V27.256H206.015ZM228.701 17.784V32.248H230.029V17.784H228.701ZM229.709 23.72V24.84H232.397V23.72H229.709ZM218.829 20.088V21.176H227.357V20.088H218.829ZM223.149 22.376C221.117 22.376 219.629 23.752 219.629 25.704C219.629 27.656 221.117 29.032 223.149 29.032C225.197 29.032 226.669 27.656 226.669 25.704C226.669 23.752 225.197 22.376 223.149 22.376ZM223.149 23.48C224.461 23.48 225.405 24.392 225.405 25.704C225.405 27 224.461 27.928 223.149 27.928C221.837 27.928 220.893 27 220.893 25.704C220.893 24.392 221.837 23.48 223.149 23.48ZM222.461 17.96V20.584H223.789V17.96H222.461ZM244.156 17.784V32.248H245.484V17.784H244.156ZM239.916 19.336V19.56C239.916 23.4 237.98 26.472 233.804 28.488L234.508 29.56C239.34 27.192 241.228 23.528 241.228 19.336H239.916ZM234.46 19.336V20.424H240.492V19.336H234.46Z" fill="#111111"/>
<path d="M98.499 15C104.299 15 109 18.664 109 23.185C109 27.705 104.299 31.369 98.5 31.369C97.9226 31.3693 97.3457 31.3325 96.773 31.259L92.365 34.142C91.864 34.407 91.687 34.378 91.893 33.729L92.785 30.051C89.905 28.591 88 26.061 88 23.185C88 18.665 92.7 15 98.5 15H98.499ZM104.407 23.06L105.877 21.636C105.962 21.5479 106.009 21.4303 106.009 21.308C106.009 21.1858 105.961 21.0683 105.876 20.9804C105.791 20.8925 105.675 20.8411 105.553 20.8369C105.431 20.8327 105.312 20.8761 105.221 20.958L103.293 22.824V21.282C103.293 21.1568 103.243 21.0368 103.155 20.9482C103.066 20.8597 102.946 20.81 102.821 20.81C102.696 20.81 102.576 20.8597 102.487 20.9482C102.399 21.0368 102.349 21.1568 102.349 21.282V23.839C102.331 23.9119 102.331 23.9881 102.349 24.061V25.5C102.349 25.6252 102.399 25.7452 102.487 25.8338C102.576 25.9223 102.696 25.972 102.821 25.972C102.946 25.972 103.066 25.9223 103.155 25.8338C103.243 25.7452 103.293 25.6252 103.293 25.5V24.137L103.72 23.724L105.148 25.757C105.184 25.8078 105.229 25.851 105.281 25.8842C105.334 25.9175 105.392 25.9401 105.453 25.9508C105.514 25.9615 105.577 25.96 105.637 25.9465C105.698 25.933 105.755 25.9077 105.806 25.872C105.857 25.8363 105.9 25.791 105.933 25.7387C105.966 25.6863 105.989 25.6279 106 25.5668C106.01 25.5057 106.009 25.4431 105.995 25.3826C105.982 25.322 105.957 25.2648 105.921 25.214L104.407 23.059V23.06ZM101.449 24.984H99.989V21.297C99.9834 21.1757 99.9313 21.0612 99.8435 20.9774C99.7557 20.8935 99.6389 20.8467 99.5175 20.8467C99.3961 20.8467 99.2793 20.8935 99.1915 20.9774C99.1037 21.0612 99.0516 21.1757 99.046 21.297V25.456C99.046 25.716 99.256 25.928 99.517 25.928H101.449C101.574 25.928 101.694 25.8783 101.783 25.7898C101.871 25.7012 101.921 25.5812 101.921 25.456C101.921 25.3308 101.871 25.2108 101.783 25.1222C101.694 25.0337 101.574 24.984 101.449 24.984ZM95.592 23.893L96.288 22.185L96.926 23.892L95.592 23.893ZM98.115 24.38L98.117 24.364C98.1168 24.2451 98.0714 24.1307 97.99 24.044L96.944 21.244C96.9002 21.1106 96.8166 20.9937 96.7046 20.909C96.5926 20.8243 96.4573 20.7758 96.317 20.77C96.1756 20.7694 96.0374 20.8118 95.9208 20.8917C95.8041 20.9715 95.7146 21.085 95.664 21.217L94.002 25.292C93.9547 25.4079 93.9553 25.5379 94.0038 25.6533C94.0523 25.7687 94.1446 25.8602 94.2605 25.9075C94.3764 25.9548 94.5064 25.9542 94.6218 25.9057C94.7372 25.8572 94.8287 25.7649 94.876 25.649L95.208 24.836H97.278L97.576 25.636C97.5963 25.6958 97.6285 25.7509 97.6705 25.7981C97.7125 25.8452 97.7635 25.8835 97.8206 25.9105C97.8777 25.9376 97.9396 25.9529 98.0027 25.9557C98.0658 25.9584 98.1288 25.9484 98.188 25.9263C98.2471 25.9042 98.3013 25.8704 98.3472 25.8271C98.3931 25.7837 98.4298 25.7315 98.4551 25.6737C98.4805 25.6158 98.494 25.5535 98.4948 25.4903C98.4957 25.4272 98.4838 25.3645 98.46 25.306L98.115 24.38ZM94.793 21.302C94.793 21.177 94.7434 21.0571 94.6551 20.9686C94.5668 20.8801 94.447 20.8303 94.322 20.83H91.077C90.9518 20.83 90.8318 20.8797 90.7432 20.9682C90.6547 21.0568 90.605 21.1768 90.605 21.302C90.605 21.4272 90.6547 21.5472 90.7432 21.6358C90.8318 21.7243 90.9518 21.774 91.077 21.774H92.237V25.51C92.237 25.6352 92.2867 25.7552 92.3752 25.8438C92.4638 25.9323 92.5838 25.982 92.709 25.982C92.8342 25.982 92.9542 25.9323 93.0428 25.8438C93.1313 25.7552 93.181 25.6352 93.181 25.51V21.774H94.321C94.4462 21.774 94.5662 21.7243 94.6548 21.6358C94.7433 21.5472 94.793 21.4272 94.793 21.302Z" fill="#111111"/>
<rect x="90" y="20" width="17" height="6" fill="#111111"/>
</svg>
