<svg width="342" height="51" viewBox="0 0 342 51" fill="none" xmlns="http://www.w3.org/2000/svg">
<rect width="342" height="51" rx="8" fill="#03C75A"/>
<g clip-path="url(#clip0_48_603)">
<path d="M101.849 25.5633L95.9173 17H91V33H96.1507V24.4373L102.083 33H107V17H101.849V25.5633Z" fill="white"/>
</g>
<path d="M124.488 21.336V29.816H125.8V21.336H124.488ZM124.488 29.432V30.584H125.416C127.16 30.584 128.776 30.504 130.664 30.12L130.488 28.984C128.664 29.352 127.096 29.432 125.416 29.432H124.488ZM134.808 19.784V34.248H136.088V19.784H134.808ZM128.504 24.632V25.736H132.12V24.632H128.504ZM131.752 20.12V33.512H133V20.12H131.752ZM149.015 19.768V34.264H150.343V19.768H149.015ZM142.711 20.888C140.583 20.888 139.047 22.856 139.047 25.928C139.047 29.016 140.583 30.984 142.711 30.984C144.855 30.984 146.391 29.016 146.391 25.928C146.391 22.856 144.855 20.888 142.711 20.888ZM142.711 22.088C144.135 22.088 145.111 23.592 145.111 25.928C145.111 28.28 144.135 29.816 142.711 29.816C141.303 29.816 140.311 28.28 140.311 25.928C140.311 23.592 141.303 22.088 142.711 22.088ZM163.83 19.768V34.264H165.142V19.768H163.83ZM160.006 25.144V26.232H164.214V25.144H160.006ZM153.814 20.92V30.632H160.454V20.92H159.142V24.68H155.126V20.92H153.814ZM155.126 25.736H159.142V29.528H155.126V25.736ZM167.956 31.368V32.472H181.06V31.368H167.956ZM173.812 28.264V31.832H175.14V28.264H173.812ZM169.54 20.856V21.928H178.132V24.168H169.588V28.136H170.9V25.24H179.444V20.856H169.54ZM169.588 27.576V28.664H179.78V27.576H169.588ZM191.28 21.032V23.624C191.28 26.36 189.536 29.128 187.392 30.152L188.208 31.24C190.576 30.04 192.368 26.952 192.368 23.624V21.032H191.28ZM191.504 21.032V23.624C191.504 26.84 193.312 29.816 195.664 30.968L196.464 29.912C194.32 28.92 192.592 26.264 192.592 23.624V21.032H191.504ZM197.968 19.768V34.264H199.296V19.768H197.968ZM205.743 21.272V22.44C205.743 24.504 204.303 26.36 202.111 27.128L202.815 28.168C205.231 27.304 206.831 25.096 206.831 22.44V21.272H205.743ZM205.983 21.272V22.424C205.983 24.92 207.519 27.048 209.903 27.88L210.591 26.84C208.463 26.12 207.071 24.344 207.071 22.424V21.272H205.983ZM202.527 20.792V21.88H210.255V20.792H202.527ZM212.079 19.784V28.488H213.407V19.784H212.079ZM213.039 23.592V24.696H215.551V23.592H213.039ZM204.015 29.256V30.36H212.079V34.248H213.407V29.256H204.015ZM226.701 19.784V34.248H228.029V19.784H226.701ZM227.709 25.72V26.84H230.397V25.72H227.709ZM216.829 22.088V23.176H225.357V22.088H216.829ZM221.149 24.376C219.117 24.376 217.629 25.752 217.629 27.704C217.629 29.656 219.117 31.032 221.149 31.032C223.197 31.032 224.669 29.656 224.669 27.704C224.669 25.752 223.197 24.376 221.149 24.376ZM221.149 25.48C222.461 25.48 223.405 26.392 223.405 27.704C223.405 29 222.461 29.928 221.149 29.928C219.837 29.928 218.893 29 218.893 27.704C218.893 26.392 219.837 25.48 221.149 25.48ZM220.461 19.96V22.584H221.789V19.96H220.461ZM242.156 19.784V34.248H243.484V19.784H242.156ZM237.916 21.336V21.56C237.916 25.4 235.98 28.472 231.804 30.488L232.508 31.56C237.34 29.192 239.228 25.528 239.228 21.336H237.916ZM232.46 21.336V22.424H238.492V21.336H232.46Z" fill="white"/>
<defs>
<clipPath id="clip0_48_603">
<rect width="16" height="16" fill="white" transform="translate(91 17)"/>
</clipPath>
</defs>
</svg>
